<?xml version="1.0" standalone="no"?>
<!DOCTYPE svg PUBLIC "-//W3C//DTD SVG 20010904//EN"
 "http://www.w3.org/TR/2001/REC-SVG-20010904/DTD/svg10.dtd">
<svg version="1.0" xmlns="http://www.w3.org/2000/svg"
 width="28.000000pt" height="28.000000pt" viewBox="0 0 28.000000 28.000000"
 preserveAspectRatio="xMidYMid meet">

<g transform="translate(0.000000,28.000000) scale(0.100000,-0.100000)"
fill="#000000" stroke="none">
<path d="M0 140 l0 -140 140 0 140 0 0 140 0 140 -140 0 -140 0 0 -140z m144
49 c-18 -5 -34 -16 -38 -24 -3 -8 -4 -15 -3 -15 1 0 24 7 51 15 27 8 58 15 69
15 16 0 17 -2 7 -15 -7 -9 -21 -13 -31 -10 -24 8 -92 -21 -87 -37 6 -18 56
-22 76 -6 12 8 11 5 -3 -10 -20 -25 -34 -25 -113 -5 l-34 8 21 19 c12 11 21
24 21 29 0 22 34 47 64 46 l31 -1 -31 -9z"/>
</g>
</svg>
